<svg xmlns="http://www.w3.org/2000/svg" width="52.13" height="44.379" viewBox="0 0 52.13 44.379"><g transform="translate(-49.884 -113.08)"><path style="fill: #f0bb94; stroke:#f0bb94;" d="M77.138,134.586a11.561,11.561,0,0,0-1.533-.7,27.358,27.358,0,0,1-3.552-1.508c-3.584-2.153-5.4-5.574-6.422-9.484-.3-1.136-.4-2.322-.652-3.471-.183-.827-.754-1.32-1.3-1.267s-1,.645-1.078,1.471c-.016.158-.039.316-.042.474a14.546,14.546,0,0,1-1.736,6.371,12.875,12.875,0,0,1-6.523,6.551c-1.173.482-2.353.951-3.495,1.5-.344.165-.779.568-.791.878s.455.63.724.936c.055.062.162.077.245.114,1.222.535,2.442,1.073,3.665,1.6a11.837,11.837,0,0,1,5.736,5.579,23.369,23.369,0,0,1,2.215,7.249,3.79,3.79,0,0,0,.473,1.328.8.8,0,0,0,1.506-.02,5.69,5.69,0,0,0,.609-1.71,24.144,24.144,0,0,1,1.939-6.489,12.7,12.7,0,0,1,7.113-6.569,23.436,23.436,0,0,0,2.559-1.074c.349-.177.581-.585.926-.952C77.49,135.063,77.373,134.728,77.138,134.586ZM66.812,139.88a19.864,19.864,0,0,0-2.992,6.661c-1.125-5.169-3.837-8.98-8.977-11.024,2.239-1.322,4.461-2.34,5.942-4.4a19.945,19.945,0,0,0,3.074-6.7,3.464,3.464,0,0,1,.258.609,13.771,13.771,0,0,0,3.987,7.367,28.21,28.21,0,0,0,3.813,2.572c.239.156.5.285.856.489C70.478,136.651,68.317,137.794,66.812,139.88Z"/><path style="fill: #f0bb94; stroke:#f0bb94;" d="M77.138,134.586a11.561,11.561,0,0,0-1.533-.7,27.358,27.358,0,0,1-3.552-1.508c-3.584-2.153-5.4-5.574-6.422-9.484-.3-1.136-.4-2.322-.652-3.471-.183-.827-.754-1.32-1.3-1.267s-1,.645-1.078,1.471c-.016.158-.039.316-.042.474a14.546,14.546,0,0,1-1.736,6.371,12.875,12.875,0,0,1-6.523,6.551c-1.173.482-2.353.951-3.495,1.5-.344.165-.779.568-.791.878s.455.63.724.936c.055.062.162.077.245.114,1.222.535,2.442,1.073,3.665,1.6a11.837,11.837,0,0,1,5.736,5.579,23.369,23.369,0,0,1,2.215,7.249,3.79,3.79,0,0,0,.473,1.328.8.8,0,0,0,1.506-.02,5.69,5.69,0,0,0,.609-1.71,24.144,24.144,0,0,1,1.939-6.489,12.7,12.7,0,0,1,7.113-6.569,23.436,23.436,0,0,0,2.559-1.074c.349-.177.581-.585.926-.952C77.49,135.063,77.373,134.728,77.138,134.586ZM66.812,139.88a19.864,19.864,0,0,0-2.992,6.661c-1.125-5.169-3.837-8.98-8.977-11.024,2.239-1.322,4.461-2.34,5.942-4.4a19.945,19.945,0,0,0,3.074-6.7,3.464,3.464,0,0,1,.258.609,13.771,13.771,0,0,0,3.987,7.367,28.21,28.21,0,0,0,3.813,2.572c.239.156.5.285.856.489C70.478,136.651,68.317,137.794,66.812,139.88Z" fill="none" stroke="#000" stroke-miterlimit="10" stroke-width="0.25"/><path style="fill: #f0bb94; stroke:#f0bb94;" d="M101.175,131.892a.759.759,0,0,0-.388-.107c-3.971-.562-6.6-3.33-7.292-7.594a8.345,8.345,0,0,0-.227-1.4c-.1-.279-.422-.68-.627-.67a1.093,1.093,0,0,0-.781.588,8.252,8.252,0,0,0-.357,1.65,8.957,8.957,0,0,1-2.712,5.276,9.1,9.1,0,0,1-4.954,2.209c-.5.072-.792.3-.813.819.009.547.277.792.827.87,4.342.619,6.533,2.955,7.564,7,.195.765.207,1.576.391,2.345.064.267.392.471.6.7.235-.212.59-.381.683-.643a11.278,11.278,0,0,0,.42-1.85c.735-4.223,3.282-6.793,6.97-7.452a2,2,0,0,0,.766-.249c.265-.181.686-.524.64-.683C101.795,132.394,101.445,132.142,101.175,131.892Zm-8.664,5.941a7.028,7.028,0,0,0-4.659-5.148,6.985,6.985,0,0,0,4.65-5.136,7.059,7.059,0,0,0,4.675,5.151A6.969,6.969,0,0,0,92.511,137.833Z"/><path style="fill: #f0bb94; stroke:#f0bb94;"  d="M101.175,131.892a.759.759,0,0,0-.388-.107c-3.971-.562-6.6-3.33-7.292-7.594a8.345,8.345,0,0,0-.227-1.4c-.1-.279-.422-.68-.627-.67a1.093,1.093,0,0,0-.781.588,8.252,8.252,0,0,0-.357,1.65,8.957,8.957,0,0,1-2.712,5.276,9.1,9.1,0,0,1-4.954,2.209c-.5.072-.792.3-.813.819.009.547.277.792.827.87,4.342.619,6.533,2.955,7.564,7,.195.765.207,1.576.391,2.345.064.267.392.471.6.7.235-.212.59-.381.683-.643a11.278,11.278,0,0,0,.42-1.85c.735-4.223,3.282-6.793,6.97-7.452a2,2,0,0,0,.766-.249c.265-.181.686-.524.64-.683C101.795,132.394,101.445,132.142,101.175,131.892Zm-8.664,5.941a7.028,7.028,0,0,0-4.659-5.148,6.985,6.985,0,0,0,4.65-5.136,7.059,7.059,0,0,0,4.675,5.151A6.969,6.969,0,0,0,92.511,137.833Z" fill="none" stroke="#000" stroke-miterlimit="10" stroke-width="0.25"/><path style="fill: #f0bb94; stroke:#f0bb94;" d="M90.242,146.3a8.461,8.461,0,0,1-7.045-7.678c-.129-1.014-.341-1.433-.9-1.45-.623-.019-.874.362-1.032,1.416a8.921,8.921,0,0,1-3.03,5.831,9.242,9.242,0,0,1-4.7,1.981.841.841,0,0,0-.818.827.862.862,0,0,0,.86.869,8.118,8.118,0,0,1,7.11,5.515c.38,1.01.539,2.1.855,3.137.074.244.376.582.574.583.227,0,.484-.3.674-.519.106-.122.088-.346.151-.515a37.585,37.585,0,0,1,1.646-4.293,7.579,7.579,0,0,1,5.721-3.835c.571-.109,1.317-.277,1.285-.968C91.558,146.54,90.854,146.407,90.242,146.3Zm-8.03,6.042a8.076,8.076,0,0,0-4.559-5.083,8.4,8.4,0,0,0,4.574-5.148,7.951,7.951,0,0,0,4.562,5.1A8.5,8.5,0,0,0,82.212,152.345Z"/><path style="fill: #f0bb94; stroke:#f0bb94;" d="M90.242,146.3a8.461,8.461,0,0,1-7.045-7.678c-.129-1.014-.341-1.433-.9-1.45-.623-.019-.874.362-1.032,1.416a8.921,8.921,0,0,1-3.03,5.831,9.242,9.242,0,0,1-4.7,1.981.841.841,0,0,0-.818.827.862.862,0,0,0,.86.869,8.118,8.118,0,0,1,7.11,5.515c.38,1.01.539,2.1.855,3.137.074.244.376.582.574.583.227,0,.484-.3.674-.519.106-.122.088-.346.151-.515a37.585,37.585,0,0,1,1.646-4.293,7.579,7.579,0,0,1,5.721-3.835c.571-.109,1.317-.277,1.285-.968C91.558,146.54,90.854,146.407,90.242,146.3Zm-8.03,6.042a8.076,8.076,0,0,0-4.559-5.083,8.4,8.4,0,0,0,4.574-5.148,7.951,7.951,0,0,0,4.562,5.1A8.5,8.5,0,0,0,82.212,152.345Z" fill="none" stroke="#000" stroke-miterlimit="10" stroke-width="0.25"/><path style="fill: #f0bb94; stroke:#f0bb94;" d="M84.486,120.41c-2.989-.708-4.566-2.757-5.319-5.588a5.472,5.472,0,0,0-.191-.993c-.131-.266-.428-.622-.655-.624-.245,0-.576.312-.722.572a4.354,4.354,0,0,0-.258,1.046c-.662,2.6-2.045,4.573-4.715,5.425a5.747,5.747,0,0,0-.97.295c-.234.125-.544.384-.55.591a1.372,1.372,0,0,0,.427.772,1.081,1.081,0,0,0,.543.261c3.31.83,4.883,3.129,5.391,6.339a1.763,1.763,0,0,0,.129.454c.261.571.815.655,1.159.137a2.993,2.993,0,0,0,.349-1.009c.643-2.947,2.178-5.091,5.234-5.9a4.15,4.15,0,0,0,1-.409c.173-.1.274-.325.388-.468C85.518,120.634,84.991,120.529,84.486,120.41Zm-6.206,3.963a4.916,4.916,0,0,0-2.948-3.071,5.051,5.051,0,0,0,2.906-3.287,4.747,4.747,0,0,0,2.973,3.213A5.239,5.239,0,0,0,78.28,124.373Z"/><path style="fill: #f0bb94; stroke:#f0bb94;" d="M84.486,120.41c-2.989-.708-4.566-2.757-5.319-5.588a5.472,5.472,0,0,0-.191-.993c-.131-.266-.428-.622-.655-.624-.245,0-.576.312-.722.572a4.354,4.354,0,0,0-.258,1.046c-.662,2.6-2.045,4.573-4.715,5.425a5.747,5.747,0,0,0-.97.295c-.234.125-.544.384-.55.591a1.372,1.372,0,0,0,.427.772,1.081,1.081,0,0,0,.543.261c3.31.83,4.883,3.129,5.391,6.339a1.763,1.763,0,0,0,.129.454c.261.571.815.655,1.159.137a2.993,2.993,0,0,0,.349-1.009c.643-2.947,2.178-5.091,5.234-5.9a4.15,4.15,0,0,0,1-.409c.173-.1.274-.325.388-.468C85.518,120.634,84.991,120.529,84.486,120.41Zm-6.206,3.963a4.916,4.916,0,0,0-2.948-3.071,5.051,5.051,0,0,0,2.906-3.287,4.747,4.747,0,0,0,2.973,3.213A5.239,5.239,0,0,0,78.28,124.373Z" fill="none" stroke="#000" stroke-miterlimit="10" stroke-width="0.25"/></g></svg>