<svg xmlns="http://www.w3.org/2000/svg" width="48.899" height="48.888" viewBox="0 0 48.899 48.888"><g transform="translate(-121.459 -109.384)"><path style="fill: #A6BEC5;" d="M168.558,121.52l-9.449,0c-.16,0-.32-.01-.507-.021l-.917-.048.334-.528a7.443,7.443,0,0,0,1.174-5.492,7.16,7.16,0,0,0-2.946-4.652,7.026,7.026,0,0,0-4.517-1.385,7.509,7.509,0,0,0-5.831,3.182l-.247.324-.295-.281a6.767,6.767,0,0,0-8.739-.963,6.7,6.7,0,0,0-2.672,3.534,6.852,6.852,0,0,0,.727,5.785l.315.547H130.65q-3.783,0-7.566,0c-1.066,0-1.609.481-1.613,1.424q-.024,4.816,0,9.632a1.353,1.353,0,0,0,1.437,1.434c.314.011.628.008.974.005l.534,0h.365v22.542c0,1.22.5,1.717,1.706,1.717h38.846c1.215,0,1.71-.5,1.71-1.713V134.016h1.631c1.194-.008,1.682-.495,1.683-1.679q0-3.865,0-7.73v-1.288C170.357,121.94,169.937,121.52,168.558,121.52Zm-24,34.122H127.39V134.069h17.17Zm0-24.228H124.088v-7.273h20.475Zm-.012-11.74c-.015.512-.03,1.036-.03,1.574v.389l-.387-.025c-.5-.031-1.009-.046-1.515-.062a21.132,21.132,0,0,1-3.478-.3,3.965,3.965,0,0,1-2.892-4.606,4.169,4.169,0,0,1,3.932-3.563,4.064,4.064,0,0,1,4.3,3.286A21.545,21.545,0,0,1,144.551,119.674Zm2.566,1.411c.033-.593.046-1.186.06-1.775a23.347,23.347,0,0,1,.322-4,4.422,4.422,0,0,1,4.58-3.342,4.753,4.753,0,0,1,4.508,3.606,4.7,4.7,0,0,1-.757,3.97,4.57,4.57,0,0,1-3.429,1.91c-.6.035-1.2.046-1.807.046-.483,0-.973-.007-1.476-.014-.529-.007-1.072-.015-1.637-.015H147.1Zm17.292,34.569h-17.14v-21.6h17.14Zm3.328-24.257H147.256v-7.258h20.481Z"/></g></svg>