<svg xmlns="http://www.w3.org/2000/svg" width="72.328" height="43.797" viewBox="0 0 72.328 43.797"><g transform="translate(-184.08 -115.102)"><path style="fill: #c47922; stroke:#c47922;" d="M254.124,152.158H246.9a5.311,5.311,0,0,0-8.825-3.067V128.085h7.655l8.393,8.393Zm-12.482,4.458a3.566,3.566,0,0,1-3.44-2.675,3.217,3.217,0,0,1,0-1.783,3.549,3.549,0,0,1,6.88,0,3.217,3.217,0,0,1,0,1.783,3.565,3.565,0,0,1-3.44,2.675Zm-31.3-4.458a5.33,5.33,0,0,0-10.517,0h-4.549V117.386h41.014v34.772Zm-5.258,4.458a3.564,3.564,0,0,1-3.44-2.675,3.193,3.193,0,0,1,0-1.783,3.554,3.554,0,1,1,3.44,4.458ZM246.469,126.3h-8.393V115.6H193.5v38.339h6.332a5.33,5.33,0,0,0,10.517,0h26.038a5.331,5.331,0,0,0,10.518,0h9.007v-18.2Z" stroke="#c47922" stroke-miterlimit="10" stroke-width="1" fill-rule="evenodd"/><rect width="23.181" height="1.783" transform="translate(184.58 124.518)" stroke="#c47922" stroke-miterlimit="10" stroke-width="1"/><rect width="21.398" height="1.783" transform="translate(189.93 131.651)" stroke="#c47922" stroke-miterlimit="10" stroke-width="1"/><rect width="10.699" height="1.783" transform="translate(188.147 138.784)" stroke="#c47922" stroke-miterlimit="10" stroke-width="1"/></g></svg>